<svg xmlns="http://www.w3.org/2000/svg" width="21" height="20" viewBox="0 0 21 20" fill="none">
  <mask id="mask0_66_201" style="mask-type:alpha" maskUnits="userSpaceOnUse" x="0" y="0" width="21" height="20">
    <rect x="0.5" width="20" height="20" fill="#D9D9D9"/>
  </mask>
  <g mask="url(#mask0_66_201)">
    <path d="M10.5 15C10.7778 15 11.0139 14.9028 11.2083 14.7083C11.4028 14.5139 11.5 14.2778 11.5 14C11.5 13.7222 11.4028 13.4861 11.2083 13.2917C11.0139 13.0972 10.7778 13 10.5 13C10.2222 13 9.98611 13.0972 9.79167 13.2917C9.59722 13.4861 9.5 13.7222 9.5 14C9.5 14.2778 9.59722 14.5139 9.79167 14.7083C9.98611 14.9028 10.2222 15 10.5 15ZM9.75 11.8125H11.2708C11.2708 11.2986 11.316 10.934 11.4062 10.7188C11.4965 10.5035 11.7153 10.2292 12.0625 9.89583C12.5486 9.42361 12.8854 9.02083 13.0729 8.6875C13.2604 8.35417 13.3542 7.98611 13.3542 7.58333C13.3542 6.81944 13.0938 6.19792 12.5729 5.71875C12.0521 5.23958 11.3889 5 10.5833 5C9.875 5 9.26042 5.1875 8.73958 5.5625C8.21875 5.9375 7.85417 6.44444 7.64583 7.08333L9 7.64583C9.125 7.25694 9.32292 6.95486 9.59375 6.73958C9.86458 6.52431 10.1806 6.41667 10.5417 6.41667C10.9306 6.41667 11.25 6.52778 11.5 6.75C11.75 6.97222 11.875 7.26389 11.875 7.625C11.875 7.94444 11.7674 8.22917 11.5521 8.47917C11.3368 8.72917 11.0972 8.97222 10.8333 9.20833C10.3472 9.65278 10.0451 10.0174 9.92708 10.3021C9.80903 10.5868 9.75 11.0903 9.75 11.8125ZM10.5 18C9.40278 18 8.36806 17.7917 7.39583 17.375C6.42361 16.9583 5.57292 16.3854 4.84375 15.6562C4.11458 14.9271 3.54167 14.0764 3.125 13.1042C2.70833 12.1319 2.5 11.0972 2.5 10C2.5 8.88889 2.70833 7.85069 3.125 6.88542C3.54167 5.92014 4.11458 5.07292 4.84375 4.34375C5.57292 3.61458 6.42361 3.04167 7.39583 2.625C8.36806 2.20833 9.40278 2 10.5 2C11.6111 2 12.6493 2.20833 13.6146 2.625C14.5799 3.04167 15.4271 3.61458 16.1562 4.34375C16.8854 5.07292 17.4583 5.92014 17.875 6.88542C18.2917 7.85069 18.5 8.88889 18.5 10C18.5 11.0972 18.2917 12.1319 17.875 13.1042C17.4583 14.0764 16.8854 14.9271 16.1562 15.6562C15.4271 16.3854 14.5799 16.9583 13.6146 17.375C12.6493 17.7917 11.6111 18 10.5 18ZM10.5 16.5C12.3056 16.5 13.8403 15.8681 15.1042 14.6042C16.3681 13.3403 17 11.8056 17 10C17 8.19444 16.3681 6.65972 15.1042 5.39583C13.8403 4.13194 12.3056 3.5 10.5 3.5C8.69444 3.5 7.15972 4.13194 5.89583 5.39583C4.63194 6.65972 4 8.19444 4 10C4 11.8056 4.63194 13.3403 5.89583 14.6042C7.15972 15.8681 8.69444 16.5 10.5 16.5Z" fill="black" fill-opacity="0.7"/>
  </g>
</svg>
