<svg xmlns="http://www.w3.org/2000/svg" width="20" height="20" viewBox="0 0 20 20" fill="none">
<mask id="mask0_276_289" style="mask-type:alpha" maskUnits="userSpaceOnUse" x="0" y="0" width="20" height="20">
<rect width="20" height="20" fill="#D9D9D9"/>
</mask>
<g mask="url(#mask0_276_289)">
<path d="M9.25 17C7.76389 16.8055 6.51736 16.1493 5.51042 15.0312C4.50347 13.9132 4 12.5833 4 11.0416C4 10.1944 4.15972 9.40621 4.47917 8.67704C4.79861 7.94788 5.23611 7.31246 5.79167 6.77079L6.85417 7.83329C6.4375 8.23607 6.10764 8.71524 5.86458 9.27079C5.62153 9.82635 5.5 10.4166 5.5 11.0416C5.5 12.1666 5.85764 13.1388 6.57292 13.9583C7.28819 14.7777 8.18056 15.2847 9.25 15.4791V17ZM10.75 17V15.4791C11.8194 15.2986 12.7118 14.7951 13.4271 13.9687C14.1424 13.1423 14.5 12.1666 14.5 11.0416C14.5 9.79163 14.0625 8.72913 13.1875 7.85413C12.3125 6.97913 11.25 6.54163 10 6.54163H9.85417L10.8125 7.49996L9.75 8.54163L7 5.79163L9.75 3.04163L10.8125 4.10413L9.875 5.04163H10C11.6667 5.04163 13.0833 5.62496 14.25 6.79163C15.4167 7.95829 16 9.37496 16 11.0416C16 12.5833 15.4965 13.9166 14.4896 15.0416C13.4826 16.1666 12.2361 16.8194 10.75 17Z" fill="#F4F4F4"/>
</g>
</svg>
